<svg viewBox="0 0 22 22" xmlns="http://www.w3.org/2000/svg"><path d="m3 4v14h7v-1h-6v-12h10v4h4v2h1v-3l-4-4h-11zm12 7c-2.20914 0-4 1.790867-4 4s1.79086 4 4 4 4-1.790867 4-4-1.79086-4-4-4zm0 .666016c.11506 0 .221924.01015.333984.02148h.08203c.03507.0067.07074.0142.105468.01953.09577.01533.176718.04112.269532.06445.171066.042.34048.09848.5.166016.08795.03733.1661.0806.25.125-.000047.0067.000533.0122 0 .01953.01933.0087.0299.04645.0625.06445.012.0067.01022.01353.02148.01953.01933.01067.04502.02235.04102.04101-.0053.02667-.04383.02102-.0625.04102.0027.03867-.03102.03845-.04102.06445.006.01667.03835.02168.04102.04102-.0033.02133-.04902.01968-.04102.04101.036.028.06952.0067.103516 0 .07466-.0093.1415-.0063.1875-.04101-.006-.03533.0665-.0305.0625-.0625.01913.014.04357.02701.0625.04101-.0072.0067-.01153.0162-.01953.01953-.014.0067-.0303.01349-.04297.02149-.01867.012-.04117.02768-.0625.04101-.01533.01067-.0465.0625-.0625.0625-.01933 0-.0485-.02353-.0625-.01953-.02.0067-.01842.03368-.04102.04102-.044.016-.131158-.02432-.146484.04101.01867.038.09167.02035.125.04102.02067.01333.05723.06132.0625.08398.0053.01867.008.105 0 .125-.02067.05334-.0832.04168-.144532.04102h-.04297c-.10332-.0067-.203334-.05252-.25.02148.0033.05667.01267.0952 0 .144532-.0093.036-.0645.0744-.0625.105468.000666.016.03897.03983.04297.0625.0027.012-.0053.02968 0 .04102.01733.03267.05137-.0067.08203 0 .02933.0067.0625.04936.0625.08203 0 .02333-.0047.06132-.01953.08399-.02933.044-.083.0385-.125.0625-.03467.02-.04183.07107-.0625.105468-.022.03734-.05164.04998-.04297.103516-.03.05933-.063.09633-.125.125-.018.008-.0459.0075-.0625.01953-.01333.0093-.02235.04312-.04102.06445-.02333.026-.04983.0425-.0625.0625-.0093.01534-.01155.04117-.02148.0625-.01467.028-.0439.0345-.0625.0625-.0087.01333-.01027.04517-.01953.0625-.02133.03867-.04697.06952-.04297.103516.0033.032.04097.03317.04297.0625.002.016-.02215.02368-.02148.04102.000667.02533.01955.04445.02148.06445.0047.04933-.03364.06978-.04297.103515-.0047.016.004.02835 0 .04102-.008.02467-.04035.05465-.04102.08398-.000667.02067.03902.03317.04102.0625.0013.01933-.02353.04383-.01953.0625.0073.036.07552.07552.103516.103516.038.038.08686.06527.103516.105469.014.034.01697.0996.04297.125.01933.01867.05737.02168.08203.04101.02333.018.0379.02168.0625.04102.04067.032.103302.108182.167968.103516.034-.0067.06548-.03502.103516-.04102.03933-.0067.08501-.02482.125-.02148.03067.0067.07152.02348.103516.02148.03333-.0067.0675-.0075.105468-.02148.066-.02867.173545-.07617.269532-.0625.07333.01067.07367.09233.125.125.05867.0067.09982-.01133.146484 0 .03533.0087.08065.05598.08398.08398.0033.02867-.03897.06598-.04297.08398-.0093.03867.0067.07885 0 .103516-.0053.01933-.0202.04317-.01953.0625 0 .01733.02302.06132.04102.08398.022.028.05732.05203.08398.08203.04867.056.06952.1135.103516.1875.0087.01867-.008.04045 0 .06445-.01467.111933-.05167.188567-.125.3125-.03467.04-.08465.07507-.08398.125-.0027.12.06787.1965.0625.3125-.012.155933.012.166733 0 .25.05267.02667.01533.110615 0 .166015-.02267.066-.04983.081-.0625.125.0354.01534.08568.0093.125 0-.01987.02067-.04217.04183-.0625.0625-.150807.150802-.322667.296149-.5.416016-.344027.2324-.725372.408933-1.144532.5-.229026.05-.465057.0625-.708984.0625-.126887 0-.252087-.0055-.375-.01953-.09791-.01133-.195876-.02168-.291016-.04102-.18878-.03867-.367282-.118433-.542968-.1875-.006-.01133-.021-.02963-.01953-.04297.03467-.01467.09967.04933.125 0 .01267-.02333-.01667-.08018 0-.103515.012-.016.07886-.01487.103516-.01953.03533-.0067.08547-.01215.105469-.02148.022-.014.04502-.06265.04101-.103515-.002-.01933-.02575-.02564-.04101-.04297-.01267-.01467.0087-.02768 0-.04102-.016-.02333-.0559-.0285-.0625-.0625.048-.0093.118173.04082.1875.02148.03267-.0093.08818-.07278.103515-.103516.0047-.0093-.0053-.03097 0-.04297.006-.012.01949-.03502.02149-.04102.0047-.018-.004-.0075 0-.01953.012-.034.04055-.05998.06055-.08398.01533-.01867.0485-.04317.0625-.0625.016-.02067.01088-.02235.02148-.04102.01-.06067-.03615-.114702-.02148-.167968.016-.06.109975-.09767.167968-.125.02-.0093.0459-.01353.0625-.01953.04-.014.08767-.02835.125-.04102.06267-.02267.07285-.06773.103516-.125.01467-.02667.03835-.06465.04102-.08398.0027-.01733-.0033-.02102 0-.04102.0033-.01933-.0053-.03983 0-.0625.0073-.02867.02148-.09307.02148-.125 0-.02667-.02088-.0385-.02148-.0625-.0047-.08667.03057-.07767.0625-.125.016-.02333.0317-.06732.04297-.08398.054-.08.151198-.107182.144532-.228515-.0027-.04-.03323-.133818-.0625-.146485-.01667-.0073-.0379-.01282-.0625-.02148-.07866-.02933-.146523-.118333-.228516-.125h-.04102c-.032 0-.06947-.01487-.105468-.01953-.02267-.0067-.0687.0067-.08203 0-.02067-.01-.0263-.05117-.04297-.0625-.01333-.0093-.0419-.01415-.0625-.02149-.03267-.012-.04403-.03901-.08203-.04101-.012 0-.02963.0067-.04297 0-.02067-.0067-.04128-.0095-.06055-.02149-.024-.01467-.05257-.02035-.0625-.04101.022-.07193-.0479-.083-.0625-.125-.0067-.01933.0067-.0647 0-.08203-.0087-.02467-.03523-.04379-.0625-.06445-.048-.03733-.07782-.05383-.146485-.0625-.03067-.0067-.06685.0067-.103515 0-.03867-.0067-.09567-.02917-.125-.0625-.028-.03267-.0379-.06663-.0625-.08203-.02333-.01467-.0465-.0283-.0625-.04297-.0073-.0067-.01482-.0055-.02149-.01953-.012-.02467-.03615-.0325-.02148-.0625-.02667-.01333-.01235.0242-.04102.01953-.026-.03667-.04488-.07303-.103515-.0625-.02667.0067-.05265.06183-.08399.0625-.026 0-.04998-.05717-.08398-.0625-.026-.0067-.06403.02482-.08203.02149-.02867-.0067-.03657-.02368-.0625-.04102-.01933-.01267-.05183-.04168-.0625-.04101-.03333 0-.0595.06568-.105469.04101-.02267-.02867.04822-.03583.02148-.0625-.02-.01933-.02501.0102-.04101.01953-.01867.012-.0419.01415-.0625.02149-.046.01733-.08901.02235-.125.04101-.03333.01733-.04323.0285-.0625.0625-.01533.028-.03923.08265-.0625.08399-.028 0-.03717-.02968-.0625-.04102-.07666-.03333-.124174.0182-.1875.01953-.05867 0-.149151-.09115-.146485-.146484.002-.034.01755-.083.02149-.125.0033-.03333.04042-.07312.04101-.103516.000667-.04133-.07685-.05783-.103515-.0625-.06267-.01133-.137658.028-.208985 0-.01333-.02267.01355-.03983.02149-.0625.0047-.012-.0047-.02768 0-.04101.008-.02133.05257-.03983.0625-.0625.0073-.01733-.0073-.0405 0-.0625.0087-.024.03902-.04517.04101-.0625.0027-.02267-.02308-.04979-.04101-.06445-.05533.0067-.093.0075-.125.02148-.07199.03267-.05233.123818-.125.146484-.02467.008-.05598.01487-.08399.01953-.0122.0067-.02735 0-.04101 0 .0013-.0067-.0013-.01287 0-.01953.0033-.01533.01626-.02635.01953-.04101.04753-.216667.121578-.4264.208984-.625h.02149c.02533.0067.0405.03968.0625.04101.06133.0067.07433-.05732.125-.08398.052.0073.07767-.0067.125 0 .032.0067.07819.03835.103515.04102.02133 0 .02102-.0222.04102-.01953.02.0067.05923.0385.0625.0625.0033.03-.02826.07045-.01953.103516.03133.032.09986.04383.144531.0625.02933-.02467.0047-.06885 0-.103516-.000667-.01533.002-.0485 0-.0625-.0033-.024-.01953-.04183-.01953-.0625 0-.09533.08054-.130702.144531-.167968.02733-.016.05998-.0505.08398-.0625.034-.01667.05599-.0055.08399-.01953.05067-.02867.08567-.073.125-.105468.018-.04333-.002-.101865 0-.144532.018-.01133.04323 0 .0625 0 .03067-.0067.04517-.04517.0625-.0625.01-.01.02902-.01148.04101-.02148.03067-.024.03583-.05183.0625-.0625.0093-.0067.02635-.01682.04102-.02148.02-.0067.05198-.0075.08398-.01953.02067-.0073.07599-.01282.08399-.02148.01-.01-.0027-.04717 0-.0625.016-.07527.120173-.07812.1875-.103516.04667-.01733.09253-.0717.144531-.0625-.01.036-.04968.0387-.04102.08203.01133.06067.08218-.01087.103516-.01953.04067-.01733.114635-.0425.167969-.0625.04667-.01667.126024-.02998.08203-.08398-.03667-.0067-.05003.02835-.08203.04102-.022.0067-.0243-.01753-.04297-.01953-.018 0-.02302.02287-.04102.01953-.018-.0067-.03835-.0405-.04101-.0625-.0073-.056.0399-.06198.0625-.103516-.01533-.05067-.08234-.02168-.125-.04102.0047-.03.02723-.05779.0625-.06445.02867-.0067.107666.0075.125.02149.01.0087-.01527.02768 0 .04101.01733.01533.0399.0067.0625 0 .008-.038-.04964-.01635-.04297-.04101.04533-.02933.132173-.01415.1875-.02149.032-.0067.0768-.02568.105469-.04101.02667-.01533.0345-.04487.0625-.01953.008.02733-.006.04783-.02149.0625-.05133.04533-.106491.09193-.146484.144532.02467.024.0641.01682.105469.02148.016.0067.0459 0 .0625 0 .02.0067.04455-.0067.06055 0 .028.0067.03457.0625.0625.0625.04533 0 .026-.05398 0-.08398.008-.03133.03288-.06003.02148-.08203-.02067-.04133-.09952.01232-.103516-.04101-.0027-.03333.02902-.03717.04102-.0625-.0053-.064.04768-.067.04102-.125-.0033-.024-.02435-.0203-.04102-.04297-.0087-.012-.01155-.05317-.02148-.0625-.03467-.02933-.09952-.0065-.103516-.0625-.002-.03333.0047-.06778 0-.103516-.0047-.034-.03323-.139817-.0625-.146484-.03733-.008-.05882.06332-.103516.08398-.024.01133-.08081.02353-.105468.01953-.016-.0067-.03902-.0097-.04102-.04102-.0027-.028.03062-.0405.04102-.0625.0027-.0067-.0013-.0122 0-.01953.0484-.01333.0973-.03164.146484-.04297.02793-.0067.05578-.0142.08398-.01953.01993-.0067.0425.0067.0625 0 .08903-.01667.178165-.03235.269532-.04102.110826-.01133.219917-.02148.333984-.02148zm-1.353516.3125c-.0212.121666-.135817.171435-.271484.167968-.03067.02933-.0047.08433-.02148.125-.014.034-.06952.06517-.103516.0625-.02467 0-.0625-.03917-.0625-.0625 0-.02867.04622-.02983.02148-.0625.0013-.0067.0126-.01482.01953-.02148.01347-.0087.02937-.01348.04297-.02148.1208-.07433.24464-.128834.375-.1875zm2.791016.125c-.01227.0067-.01068.01482-.02148.02148-.02533.01533-.04317.03435-.0625.04102-.02733.01-.05857.01635-.0625.04101-.0033.02067.02222.02235.02148.04102-.01.02467-.01615.03445-.02148.06445.034.05533.104491-.01282.146484-.02148.01867-.0067.03102-.0075.04102-.02149.01133-.018.01288-.03717.02148-.0625.0093-.028.04435-.03783.04102-.0625-.0027-.02467-.06222-.04435-.103516-.04101zm-3.646484.417968c.0316.02533.07672.07978.02148.103516-.0067.0067-.08752.02415-.103516.02148-.0067 0-.01588-.01682-.02148-.02148.03447-.03333.06766-.07152.103516-.103516zm.125.125c.016 0 .0243.04035.04297.04102.018 0 .03035-.02415.04102-.02148.028.0073.04822.06332.02148.08398-.022.0067-.02697-.02415-.04297-.02148-.04533.008-.06952.108135-.103516.105468-.032-.0067-.05422-.08213-.02148-.105468.000666-.02-.0013-.02035 0-.04102.01-.012.03583-.04302.0625-.04102zm-.166016.019532c.0093 0 .01822-.0067.02148 0-.0047.03533-.01563.04583-.04297.0625-.04733.02867-.08818.064-.103516.125-.0047.018-.06132.06677-.08398.0625-.05267-.01133.03097-.109734.04297-.125.01333-.01667.02568-.02235.04102-.04102.01533-.01867.02635-.05183.04102-.0625.016-.01133.05598-.02087.08398-.01953zm4.521484.105468c.05267-.0067.07952.05003.103516.08203.02.026.07085.06598.103516.08398.01867.01.04183.03235.0625.04102.04333.01933.123.08233.125.125.000666.02133-.02293.0425-.01953.0625.03267.0067.06183-.04937.0625-.08203.06127.08667.113083.177132.166016.269532.025.04333.06092.08.08398.125-.0294.0087-.03824.01301-.04297.04101-.0067.03733.01498.09887-.04102.105469-.03533.0067-.07634-.02968-.125-.04102-.02-.0067-.0465.0067-.0625 0-.03667-.012-.03123-.06198-.0625-.08398-.018-.01267-.07485-.03835-.103516-.04102-.018 0-.0243.0067-.04297 0-.02267-.0067-.06336.0093-.08203 0-.018-.01133-.05783-.04717-.0625-.0625-.0073-.02467.06117-.04117.0625-.0625.0013-.016-.01822-.03979-.02148-.06445-.0027-.01467.0033-.03102 0-.04101-.0047-.01733-.03523-.01887-.0625-.01953h-.249996c-.058.0067-.101151-.0067-.146484 0-.03267 0-.09433.02768-.125.04102-.01533.0073-.02102.0095-.04102.01953-.0093.0067-.02902.01615-.04102.02149-.01867.0087-.04457.03568-.0625.04101-.026.0067-.05817-.0067-.105468 0-.034 0-.08136-.02183-.08203-.0625-.000666-.062.107356-.02968.166016-.04101.022-.0067.03583-.02502.0625-.04102.01267-.0073.0096-.01348.02148-.02148.02-.014.05923-.0465.0625-.0625.0027-.01467-.002-.02968 0-.04102.0027-.014.02302-.02235.04102-.04102.028-.028.04932-.06598.08398-.08398.02333-.012.05183-.02235.0625-.04102.0027-.02133-.000666-.02101 0-.04101.01467-.01333.02902-.01882.04102-.02149.036-.008.06155 0 .103516 0 .018 0 .04323.0087.0625 0 .016-.01067.02697-.03368.04297-.04101.01733-.0093.04117-.02015.0625-.02149zm.375.394532h-.083984c-.02933 0-.06665-.01533-.08398 0 .02467.04.06967.0525.125.0625.02-.01467.03364-.0365.04297-.0625zm-4.5625-.375h.0625c.01667 0 .03435-.0067.04102 0-.01067.044-.111818.03748-.146484.02148.002-.01667.02163-.01882.04297-.02148zm-.146484.083984c-.02913.02133-.05728.04783-.103516.0625-.02533.008-.05783.0065-.0625-.02148-.0053-.03467.03983-.0162.0625-.01953.02933-.0067.06952-.02015.103516-.02148zm4.333984 0c-.022.0073-.03267.05583 0 .0625.01533-.0093.0236-.03383.01953-.0625-.0087-.0093-.01293-.0067-.01953 0zm-.04297.103516c.000666.03733.0073.07307 0 .105468.02133.04133.07332.0065.08398-.02148.01267-.06933-.009-.09265-.04102-.08398-.01067.0067-.0317-.0087-.04297 0zm-5.519532 1.5625c.0376.034.05855.0832.103516.105468.01667.0087.04123.0142.0625.01953.01733.0067.02435-.0067.04102 0 .03533.012.07747.02835.105468.04101.04267.01867.08833.08414.125.105469.002.02133-.0067.0465 0 .0625.01733.02333.0345.0465.0625.0625.034.01867.05003.04783.08203.0625.01133.0067.02563-.0067.04297 0 .044.01333.06548.07357.103516.0625.02467-.0073.01755-.0385.02148-.0625.01667-.018.0365-.04102.0625-.04102.04133 0 .04717.06332.0625.103516.0087.02267.03502.0385.04102.0625.01.04133.0087.162833 0 .1875-.01067.03067-.05865.0285-.08398.0625-.012.016-.01027.05117-.01953.0625-.016.01933-.03097.02497-.04297.04297-.0067.01-.0136.02768-.01953.04101-.02.04267-.05963.07367-.04297.125.0067.02067.04297.03783.04297.0625 0 .02933-.05783.05199-.0625.08399-.0033.02333.01227.0507.01953.08203.0053.02333.0485.04717.0625.0625.02333.026.04123.07247.0625.105469.042.06467.06417.143698.105468.207031.022.03267.06737.04932.08203.08398.0073.01733-.0067.0465 0 .0625.024.054.133506.119885.1875.146485.02533.01267.06065.0062.08398.01953.03533.02.107007.0744.125.105469.016.028.01355.09993.02148.144531.01.05867-.0027.104569 0 .167969.002.03467.01953.04736.01953.08203 0 .012.000666.04983 0 .0625-.000667.04133.0033.083 0 .125-.002.02267-.0013.04317 0 .0625.002.02067.02022.02497.02148.04297.0013.01933-.02355.04717-.02148.0625.0047.042.03497.06465.04297.103515.0067.03067.02353.109818.01953.146485-.0027.01933-.01687.0405-.01953.0625-.002.01733.0027.02568 0 .04102-.002.01533.004.02835 0 .04102-.02127-.01333-.04163-.02702-.0625-.04102-.177333-.119866-.349193-.265215-.5-.416015-.0204-.02067-.04263-.04312-.0625-.06445-.120382-.126726-.234553-.271541-.33398-.416008-.009-.01333-.01268-.02835-.02148-.04102-.115367-.172866-.209143-.347415-.291016-.541015-.006-.014-.01582-.02897-.02148-.04297-.07025-.172667-.125303-.355349-.166016-.541016-.0077-.03533-.01495-.06811-.02148-.103515-.01653-.08907-.03175-.180085-.04102-.271485-.0114-.113-.02148-.218917-.02148-.333984 0-.1584.02157-.306451.04297-.458984z" fill="#e6f1ff"/></svg>